<?xml version="1.0" encoding="utf-8"?>
<!-- Generator: Adobe Illustrator 25.0.1, SVG Export Plug-In . SVG Version: 6.00 Build 0)  -->
<svg version="1.2" baseProfile="tiny-ps" id="Layer_1" xmlns="http://www.w3.org/2000/svg" xmlns:xlink="http://www.w3.org/1999/xlink"
	 viewBox="0 0 160 160" xml:space="preserve">
<title>Pasadena Bridge Club - BridgeMojo</title>
<g>
	<path fill="none" d="M135.2,5.3H21.7c-9.1,0-16.5,7.4-16.5,16.5v116.1c0,9.1,7.4,16.5,16.5,16.5h113.5c9.1,0,16.5-7.4,16.5-16.5
		V21.8C151.7,12.7,144.3,5.3,135.2,5.3z M88.4,29.2c1-2,2.3-3.5,4.1-4.4c1.8-1,3.6-1.5,5.5-1.5c2.7,0,5.1,0.9,7.2,2.6
		c2.2,1.7,3.6,3.9,4.2,6.6c0.3,1.3,0.7,2.1,1.1,2.6c0.2,0.3,0.5,0.4,0.8,0.4c0.5,0,0.8-0.1,1-0.4c0.5-0.5,0.9-1.4,1.2-2.6
		c0.8-2.9,2.2-5.2,4.2-6.7s4.4-2.4,7.2-2.4c3.3,0,5.9,1.1,8,3.4c2.1,2.3,3.1,5.5,3.1,9.5c0,2.8-0.6,5.6-1.9,8.5
		c-1.3,2.9-3.8,6.8-7.7,11.7c-3.8,4.8-6.2,7.9-7.1,9.1l-8,11.2l-8-11.3c-0.9-1.2-3.2-4.3-7.1-9.2c-3.8-4.9-6.4-8.7-7.6-11.6
		c-1.2-2.8-1.8-5.7-1.8-8.5C86.9,33.5,87.4,31.2,88.4,29.2z M41.5,149.8l-22.1-27.8l22.1-27.8l21.7,27.8L41.5,149.8z M63.2,66.9
		c-1.8,2-3.9,3-6.2,3c-1.7,0-3.2-0.5-4.5-1.5c-1.3-1-2.6-3-4-6.1c-0.6-1.3-1.1-2.1-1.5-2.5c-0.3-0.3-0.6-0.4-0.9-0.4
		c-0.5,0-1,0.3-1.4,0.9c-0.6,0.9-0.9,2.4-0.9,4.5c0,3.7,1.2,7.2,3.7,10.4H34.8c1.3-1.6,2.2-3,2.6-4.2c0.8-2,1.2-4.1,1.2-6.2
		c0-2-0.3-3.5-0.9-4.5c-0.3-0.6-0.7-0.9-1.2-0.9c-0.4,0-0.8,0.2-1.1,0.5c-0.5,0.4-0.9,1.2-1.4,2.4c-1.2,2.9-2.5,4.9-3.9,6
		c-1.4,1.1-2.9,1.6-4.7,1.6c-2.4,0-4.4-1-6.2-3c-1.8-2-2.6-4.7-2.6-8.2c0-1.9,0.3-3.5,0.9-5c0.9-2.2,1.9-3.9,3-5.3l11.1-14.5
		c2.4-3.1,5.5-7.7,9.5-13.9c3.1,5,6.3,9.6,9.6,13.9l11.2,14.5c2.7,3.5,4,7,4,10.6C65.8,62.3,65,64.9,63.2,66.9z M136.3,137.3
		c-1.8,2.1-4.2,3.1-7.2,3.1c-1.8,0-3.4-0.4-4.9-1.1c-1.5-0.7-3.4-2.3-5.7-4.7c-1-1-1.6-1.6-2-1.9c-0.4-0.2-0.7-0.3-1.1-0.3
		c-0.3,0-0.5,0.1-0.7,0.2c-0.3,0.2-0.4,0.6-0.6,1.2c-0.2,0.8-0.3,2-0.3,3.7c0,2.4,0.2,4.3,0.7,5.7c0.5,1.4,1.5,3.1,3,5.1h-12.3
		c1.5-2.1,2.5-3.9,3-5.3c0.5-1.4,0.7-3.2,0.7-5.4c0-1.8-0.1-3-0.2-3.7c-0.1-0.5-0.3-0.9-0.5-1.1c-0.2-0.2-0.5-0.3-0.7-0.3
		c-0.3,0-0.7,0.1-1.1,0.4c-0.4,0.3-1.5,1.2-3.1,3c-1.7,1.7-3,2.8-4.1,3.3c-1.8,0.8-3.6,1.3-5.4,1.3c-3,0-5.4-1-7.2-3.1
		c-1.8-2.1-2.7-4.9-2.7-8.4c0-2.3,0.5-4.6,1.4-6.7s2.2-3.6,3.8-4.5c1.6-0.9,3.3-1.4,5.3-1.4c1.2,0,2.2,0.2,3.2,0.5
		c1,0.3,2.5,1,4.6,2.2c2.1,1.1,3.5,1.7,4.3,1.7c0.4,0,0.8-0.1,1-0.4c0.3-0.3,0.4-0.6,0.4-1.1c0-0.6-0.1-1-0.4-1.4
		c-0.4-0.5-1.3-1.2-2.6-2c-1.8-1.1-3.3-2.6-4.3-4.5c-1-1.9-1.5-3.8-1.5-5.6c0-2.9,1.1-5.4,3.3-7.4c2.2-2,5.2-3,9-3
		c3.8,0,6.8,1,8.9,3s3.2,4.5,3.2,7.5c0,2-0.5,3.9-1.6,5.7c-1,1.8-2.4,3.2-3.9,4.2c-1.6,1-2.5,1.7-2.8,2.1c-0.3,0.4-0.5,0.8-0.5,1.3
		s0.1,0.9,0.4,1.1c0.3,0.3,0.6,0.4,1.1,0.4c0.8,0,2.1-0.6,4.1-1.7c3.2-1.8,5.9-2.7,8.1-2.7c2.2,0,4,0.5,5.5,1.4
		c1.5,1,2.7,2.5,3.6,4.7c0.9,2.2,1.3,4.3,1.3,6.5C139,132.4,138.1,135.2,136.3,137.3z"/>
	<path d="M50.7,33.9c-3.3-4.2-6.4-8.9-9.6-13.9c-4,6.2-7.1,10.8-9.5,13.9L20.5,48.5c-1,1.3-2,3.1-3,5.3c-0.6,1.5-0.9,3.1-0.9,5
		c0,3.4,0.9,6.2,2.6,8.2c1.8,2,3.8,3,6.2,3c1.7,0,3.3-0.5,4.7-1.6c1.4-1.1,2.7-3.1,3.9-6c0.5-1.2,0.9-2,1.4-2.4
		c0.3-0.3,0.7-0.5,1.1-0.5c0.4,0,0.8,0.3,1.2,0.9c0.6,1,0.9,2.5,0.9,4.5c0,2.2-0.4,4.2-1.2,6.2c-0.5,1.3-1.3,2.7-2.6,4.2h12.7
		c-2.5-3.3-3.7-6.7-3.7-10.4c0-2.1,0.3-3.6,0.9-4.5c0.4-0.6,0.9-0.9,1.4-0.9c0.3,0,0.6,0.1,0.9,0.4c0.4,0.4,0.9,1.3,1.5,2.5
		c1.3,3.1,2.7,5.1,4,6.1c1.3,1,2.8,1.5,4.5,1.5c2.4,0,4.5-1,6.2-3s2.7-4.6,2.7-7.9c0-3.6-1.3-7.1-4-10.6L50.7,33.9z"/>
	<path fill="#BE1E2D" d="M96.3,56.3c3.8,4.9,6.2,8,7.1,9.2l8,11.3l8-11.2c0.9-1.2,3.2-4.2,7.1-9.1c3.8-4.8,6.4-8.7,7.7-11.7
		c1.3-2.9,1.9-5.8,1.9-8.5c0-4.1-1-7.2-3.1-9.5c-2.1-2.3-4.7-3.4-8-3.4c-2.8,0-5.2,0.8-7.2,2.4s-3.4,3.8-4.2,6.7
		c-0.3,1.2-0.8,2.1-1.2,2.6c-0.2,0.3-0.6,0.4-1,0.4c-0.3,0-0.6-0.1-0.8-0.4c-0.4-0.5-0.8-1.3-1.1-2.6c-0.7-2.7-2.1-4.9-4.2-6.6
		c-2.2-1.7-4.6-2.6-7.2-2.6c-1.9,0-3.7,0.5-5.5,1.5c-1.8,1-3.1,2.4-4.1,4.4c-1,2-1.4,4.3-1.4,7c0,2.8,0.6,5.7,1.8,8.5
		C90,47.5,92.5,51.4,96.3,56.3z"/>
	<polygon fill="#BE1E2D" points="19.3,121.9 41.5,149.8 63.1,121.9 41.5,94.2 	"/>
	<path d="M134.1,117.8c-1.5-1-3.4-1.4-5.5-1.4c-2.3,0-5,0.9-8.1,2.7c-2,1.1-3.3,1.7-4.1,1.7c-0.4,0-0.8-0.1-1.1-0.4
		c-0.3-0.3-0.4-0.7-0.4-1.1s0.2-0.9,0.5-1.3c0.3-0.4,1.3-1.1,2.8-2.1c1.6-1,2.9-2.4,3.9-4.2c1-1.8,1.6-3.7,1.6-5.7
		c0-3-1.1-5.5-3.2-7.5s-5.1-3-8.9-3c-3.8,0-6.9,1-9,3c-2.2,2-3.3,4.5-3.3,7.4c0,1.8,0.5,3.7,1.5,5.6c1,1.9,2.5,3.4,4.3,4.5
		c1.3,0.8,2.2,1.5,2.6,2c0.3,0.3,0.4,0.8,0.4,1.4c0,0.5-0.1,0.8-0.4,1.1c-0.3,0.3-0.6,0.4-1,0.4c-0.8,0-2.2-0.6-4.3-1.7
		c-2.1-1.1-3.6-1.9-4.6-2.2c-1-0.3-2.1-0.5-3.2-0.5c-2,0-3.7,0.5-5.3,1.4c-1.6,0.9-2.8,2.4-3.8,4.5s-1.4,4.3-1.4,6.7
		c0,3.5,0.9,6.3,2.7,8.4c1.8,2.1,4.2,3.1,7.2,3.1c1.8,0,3.6-0.4,5.4-1.3c1-0.5,2.4-1.6,4.1-3.3c1.7-1.7,2.7-2.7,3.1-3
		c0.4-0.3,0.8-0.4,1.1-0.4c0.2,0,0.4,0.1,0.7,0.3c0.2,0.2,0.4,0.6,0.5,1.1c0.2,0.7,0.2,1.9,0.2,3.7c0,2.2-0.2,4-0.7,5.4
		c-0.5,1.4-1.5,3.2-3,5.3h12.3c-1.5-2-2.5-3.7-3-5.1c-0.5-1.4-0.7-3.3-0.7-5.7c0-1.7,0.1-2.9,0.3-3.7c0.1-0.6,0.3-1,0.6-1.2
		c0.2-0.1,0.4-0.2,0.7-0.2c0.3,0,0.7,0.1,1.1,0.3c0.4,0.2,1,0.8,2,1.9c2.3,2.4,4.2,4,5.7,4.7c1.5,0.7,3.1,1.1,4.9,1.1
		c3,0,5.4-1,7.2-3.1c1.8-2.1,2.7-4.9,2.7-8.3c0-2.1-0.4-4.3-1.3-6.5C136.8,120.3,135.6,118.7,134.1,117.8z"/>
	<path d="M135.2,2.3H21.7C10.9,2.3,2.2,11,2.2,21.8v116.1c0,10.8,8.7,19.5,19.5,19.5h113.5c10.8,0,19.5-8.7,19.5-19.5V21.8
		C154.7,11,146,2.3,135.2,2.3z M151.7,137.8c0,9.1-7.4,16.5-16.5,16.5H21.7c-9.1,0-16.5-7.4-16.5-16.5V21.8
		c0-9.1,7.4-16.5,16.5-16.5h113.5c9.1,0,16.5,7.4,16.5,16.5V137.8z"/>
</g>
</svg>
